<?xml version="1.0" encoding="utf-8"?>
<!-- Generator: Adobe Illustrator 16.0.0, SVG Export Plug-In . SVG Version: 6.00 Build 0)  -->
<!DOCTYPE svg PUBLIC "-//W3C//DTD SVG 1.1//EN" "http://www.w3.org/Graphics/SVG/1.1/DTD/svg11.dtd">
<svg version="1.1" id="Layer_1" xmlns="http://www.w3.org/2000/svg" xmlns:xlink="http://www.w3.org/1999/xlink" x="0px" y="0px"
	 width="400px" height="400px" viewBox="0 0 400 400" enable-background="new 0 0 400 400" xml:space="preserve">
<ellipse fill="#FFFFFF" cx="209.5" cy="198" rx="115.5" ry="140"/>
<path id="facebook-circle-icon" fill="#6A93CC" d="M200,23.5c-94.441,0-171,76.559-171,171c0,94.441,76.559,171,171,171
	c94.439,0,171-76.559,171-171C371,100.059,294.439,23.5,200,23.5z M250.609,124.101c0,0-17.104,0-23.898,0
	c-8.436,0-10.191,3.456-10.191,12.184c0,7.264,0,21.088,0,21.088h34.09l-3.279,37.02H216.52v110.591h-44.163V194.861h-22.965
	v-37.487h22.965c0,0,0-5.39,0-29.522c0-27.708,14.816-42.175,47.678-42.175c5.383,0,30.574,0,30.574,0V124.101L250.609,124.101z"/>
</svg>
