<?xml version="1.0" encoding="utf-8"?>
<!-- Generator: Adobe Illustrator 16.0.0, SVG Export Plug-In . SVG Version: 6.00 Build 0)  -->
<!DOCTYPE svg PUBLIC "-//W3C//DTD SVG 1.1//EN" "http://www.w3.org/Graphics/SVG/1.1/DTD/svg11.dtd">
<svg version="1.1" id="Layer_1" xmlns="http://www.w3.org/2000/svg" xmlns:xlink="http://www.w3.org/1999/xlink" x="0px" y="0px"
	 width="400px" height="400px" viewBox="0 0 400 400" enable-background="new 0 0 400 400" xml:space="preserve">
<g id="Layer_1_1_">
</g>
<g id="Layer_2">
	<circle fill="#6A93CC" cx="202" cy="195" r="171"/>
	<path id="soundcloud-circle-outline-icon_1_" fill="#FFFFFF" d="M329.563,206.424c0,16.764-13.59,30.354-30.353,30.354h-84.425
		V132.471c3.227-1.178,6.596-2.054,10.076-2.598c2.723-0.425,5.512-0.65,8.354-0.65c28.259,0,51.425,21.795,53.608,49.493
		c3.783-1.694,7.973-2.644,12.386-2.644C315.973,176.073,329.563,189.662,329.563,206.424z M183.217,153.089v83.687h10.075v-89.803
		c-2.242,2.483-4.258,5.178-6.011,8.047C185.967,154.309,184.609,153.666,183.217,153.089z M198.834,236.775h10.075V135.023
		c-3.612,1.834-6.99,4.063-10.075,6.634V236.775z M134.854,163.573v73.204h10.076v-81.201
		C141.184,157.734,137.79,160.436,134.854,163.573z M104.629,178.76v57.766c1.237,0.16,2.496,0.252,3.777,0.252h5.291V178.99
		c-1.717-0.315-3.484-0.481-5.291-0.481C107.125,178.508,105.866,178.6,104.629,178.76z M91.277,231.204
		c2.291,1.669,4.832,3.008,7.558,3.955v-55.034c-2.726,0.948-5.267,2.288-7.558,3.955V231.204z M119.236,180.6v56.176h10.076
		v-65.867c-2.268,3.771-3.985,7.91-5.029,12.313C122.701,182.189,121.012,181.313,119.236,180.6z M150.975,236.775h10.075v-86.631
		c-3.507,0.447-6.88,1.316-10.075,2.547V236.775z M167.096,236.775h10.075v-85.684c-3.229-0.808-6.604-1.252-10.075-1.292V236.775z
		 M86.324,226.637v-37.988c-4.393,5.102-7.053,11.734-7.053,18.994C79.271,214.9,81.934,221.535,86.324,226.637z"/>
</g>
</svg>
