<?xml version="1.0" encoding="utf-8"?>
<!-- Generator: Adobe Illustrator 16.0.0, SVG Export Plug-In . SVG Version: 6.00 Build 0)  -->
<!DOCTYPE svg PUBLIC "-//W3C//DTD SVG 1.1//EN" "http://www.w3.org/Graphics/SVG/1.1/DTD/svg11.dtd">
<svg version="1.1" id="Layer_1" xmlns="http://www.w3.org/2000/svg" xmlns:xlink="http://www.w3.org/1999/xlink" x="0px" y="0px"
	 width="400px" height="400px" viewBox="0 0 400 400" enable-background="new 0 0 400 400" xml:space="preserve">
<g id="Layer_1_1_">
</g>
<g id="Layer_2">
	<circle fill="#6A93CC" cx="202" cy="195" r="171"/>
	<path fill="#FFFFFF" d="M210.664,175.143c1.52-8.816,6.156-16.797,13.908-23.94s15.884-10.716,24.396-10.716
		c18.849,0,26.448,10.184,22.8,30.552c-3.039,19.151-12.16,38-27.358,56.544c-13.984,16.72-27.058,29.336-39.218,37.849
		c-3.646,1.823-7.143,2.735-10.486,2.735c-8.208,0-14.896-5.319-20.064-15.96c-1.216-2.434-5.244-15.048-12.084-37.848
		c-6.84-22.8-10.716-34.81-11.628-36.024c-0.608-1.216-1.521-1.824-2.736-1.824c-4.864,0-9.576,2.28-14.136,6.84l-5.472-7.752
		l6.384-7.752c14.289-15.199,26.448-23.863,36.48-25.992h3.648c4.256,0,7.752,2.053,10.488,6.156
		c2.736,4.103,4.56,8.588,5.472,13.452c0.912,4.864,1.824,10.563,2.736,17.101c0.912,6.535,1.672,11.02,2.28,13.451
		c4.56,19.76,8.512,29.641,11.856,29.641c4.256,0,10.943-8.816,20.063-26.448c3.039-5.168,3.95-10.488,2.735-15.96
		c-1.217-5.473-4.408-8.208-9.576-8.208C219.023,171.038,215.527,172.406,210.664,175.143z"/>
</g>
</svg>
